<svg width="1600" height="900" viewBox="0 0 1600 900" fill="none" xmlns="http://www.w3.org/2000/svg">
<g clip-path="url(#clip0_2349_17)">
<rect width="1600" height="900" fill="#130086"/>
<rect x="433" y="252" width="1278" height="316" fill="white"/>
<path d="M457.76 731.164H453.345L450.802 724.161H436.752L434.21 731.164H429.794L441.436 699.942H446.119L457.76 731.164ZM443.755 704.893L438.18 720.281H449.375L443.755 704.893ZM485.128 708.283C487.655 708.283 489.677 709.1 491.194 710.736C492.74 712.371 493.513 714.557 493.513 717.292V731.164H489.633V717.426C489.633 715.731 489.187 714.408 488.295 713.457C487.432 712.475 486.243 711.985 484.727 711.985C483.002 711.985 481.649 712.565 480.668 713.724C479.716 714.854 479.24 716.534 479.24 718.764V731.164H475.36V717.426C475.36 715.731 474.929 714.408 474.066 713.457C473.234 712.475 472.089 711.985 470.632 711.985C468.937 711.985 467.554 712.579 466.484 713.769C465.443 714.929 464.923 716.594 464.923 718.764V731.164H461.042V708.863H464.923V711.851C466.439 709.472 468.655 708.283 471.569 708.283C474.572 708.283 476.757 709.546 478.125 712.074C479.672 709.546 482.006 708.283 485.128 708.283ZM517.36 712.698V708.863H521.24V731.164H517.36V727.328C515.457 730.272 512.647 731.744 508.93 731.744C505.778 731.744 503.116 730.614 500.946 728.354C498.745 726.064 497.645 723.284 497.645 720.013C497.645 716.772 498.745 714.007 500.946 711.717C503.146 709.427 505.807 708.283 508.93 708.283C512.647 708.283 515.457 709.755 517.36 712.698ZM509.42 727.997C511.68 727.997 513.568 727.239 515.085 725.722C516.601 724.147 517.36 722.243 517.36 720.013C517.36 717.753 516.601 715.865 515.085 714.349C513.568 712.802 511.68 712.029 509.42 712.029C507.19 712.029 505.317 712.802 503.8 714.349C502.284 715.865 501.526 717.753 501.526 720.013C501.526 722.243 502.284 724.147 503.8 725.722C505.317 727.239 507.19 727.997 509.42 727.997ZM543.043 711.449L531.624 727.462H543.489V731.164H526.317V728.577L537.69 712.565H526.763V708.863H543.043V711.449ZM565.543 728.354C563.283 730.614 560.503 731.744 557.202 731.744C553.901 731.744 551.121 730.614 548.861 728.354C546.601 726.094 545.471 723.314 545.471 720.013C545.471 716.713 546.601 713.932 548.861 711.672C551.121 709.413 553.901 708.283 557.202 708.283C560.503 708.283 563.283 709.413 565.543 711.672C567.832 713.962 568.977 716.742 568.977 720.013C568.977 723.284 567.832 726.064 565.543 728.354ZM557.202 727.953C559.432 727.953 561.306 727.194 562.822 725.678C564.339 724.161 565.097 722.273 565.097 720.013C565.097 717.753 564.339 715.865 562.822 714.349C561.306 712.832 559.432 712.074 557.202 712.074C555.002 712.074 553.143 712.832 551.627 714.349C550.11 715.865 549.352 717.753 549.352 720.013C549.352 722.273 550.11 724.161 551.627 725.678C553.143 727.194 555.002 727.953 557.202 727.953ZM584.658 708.283C587.275 708.283 589.371 709.115 590.947 710.78C592.523 712.416 593.311 714.646 593.311 717.471V731.164H589.431V717.694C589.431 715.91 588.94 714.512 587.959 713.501C586.977 712.49 585.624 711.985 583.9 711.985C581.908 711.985 580.332 712.609 579.172 713.858C578.012 715.077 577.432 716.906 577.432 719.344V731.164H573.552V708.863H577.432V712.074C578.979 709.546 581.387 708.283 584.658 708.283Z" fill="white"/>
<path d="M441.314 610.059L435.144 616.229V667.238H454.442V646.774H458.73V667.238H478.028V616.229L471.859 610.059H441.314ZM458.73 632.254L454.442 636.505V626.31H458.73V632.254ZM508.214 610.059V630.561H503.926V610.059H484.628V667.238H503.926V646.774H508.214V667.238H527.512V610.059H508.214ZM534.112 610.059V626.31H545.886V667.238H565.222V626.31H576.996V610.059H534.112ZM589.727 610.059L583.596 616.191V661.069L589.765 667.238H620.31L626.48 661.069V616.191L620.348 610.059H589.727ZM607.182 646.812L602.931 651.063V626.273H607.182V646.812ZM656.666 610.059V630.561H652.377V610.059H633.079V667.238H652.377V646.774H656.666V667.238H675.964V610.059H656.666ZM732.085 610.059V630.561H727.796V610.059H708.498V667.238H727.796V646.774H732.085V667.238H751.382V610.059H732.085ZM800.866 650.987V667.238H757.982V610.059H800.866V626.273H781.493L777.242 630.523H796.615V646.737H777.242V650.987H800.866ZM846.814 610.059L840.645 616.229L834.513 610.059H807.466V667.276H826.801V634.812L831.052 630.561V667.276H850.388V634.812L854.638 630.561V667.276H873.974V610.059H846.814ZM904.122 610.059V651.063L899.872 646.812V610.059H880.574V661.069L886.743 667.238H917.289L923.458 673.37V610.059H904.122ZM972.942 650.987V667.238H930.057V610.059H972.942V626.273H953.568L949.318 630.523H968.691V646.737H949.318V650.987H972.942ZM1022.43 616.191L1016.26 610.059H979.541V667.238H1016.26L1022.43 661.069V644.78L1016.26 638.611L1022.43 632.479V616.191ZM1003.13 651.063L998.839 655.313V644.329H1003.13V651.063ZM1003.13 630.523L998.839 634.774V626.273H1003.13V630.523Z" fill="#FF1F7D"/>
<path d="M505.453 364.208L519.337 331.152H527.105L508.511 375.282C504.379 384.978 497.74 389.551 488.595 389V381.893C491.735 382.224 494.297 381.783 496.28 380.571C498.319 379.304 499.999 377.1 501.321 373.96L501.9 372.637L482.314 331.152H490.082L505.453 364.208ZM546.76 390.074C540.534 390.074 535.355 388.008 531.223 383.876C527.091 379.689 525.025 374.51 525.025 368.34C525.025 362.17 527.091 357.018 531.223 352.886C535.355 348.699 540.534 346.606 546.76 346.606C550.836 346.606 554.5 347.597 557.751 349.581C561.001 351.509 563.425 354.126 565.023 357.432L558.99 360.902C557.944 358.699 556.318 356.936 554.115 355.613C551.966 354.291 549.514 353.63 546.76 353.63C542.628 353.63 539.157 355.035 536.347 357.845C533.592 360.71 532.215 364.208 532.215 368.34C532.215 372.417 533.592 375.888 536.347 378.753C539.157 381.562 542.628 382.967 546.76 382.967C549.514 382.967 551.993 382.334 554.197 381.067C556.401 379.744 558.081 377.981 559.238 375.778L565.354 379.331C563.535 382.637 560.974 385.254 557.668 387.182C554.362 389.11 550.726 390.074 546.76 390.074ZM606.761 383.794C602.574 387.981 597.423 390.074 591.308 390.074C585.192 390.074 580.041 387.981 575.854 383.794C571.667 379.607 569.573 374.455 569.573 368.34C569.573 362.225 571.667 357.073 575.854 352.886C580.041 348.699 585.192 346.606 591.308 346.606C597.423 346.606 602.574 348.699 606.761 352.886C611.004 357.129 613.125 362.28 613.125 368.34C613.125 374.4 611.004 379.551 606.761 383.794ZM591.308 383.05C595.44 383.05 598.911 381.645 601.72 378.835C604.53 376.026 605.935 372.527 605.935 368.34C605.935 364.153 604.53 360.654 601.72 357.845C598.911 355.035 595.44 353.63 591.308 353.63C587.231 353.63 583.787 355.035 580.978 357.845C578.168 360.654 576.763 364.153 576.763 368.34C576.763 372.527 578.168 376.026 580.978 378.835C583.787 381.645 587.231 383.05 591.308 383.05ZM649.12 367.762C653.362 369.525 655.483 372.72 655.483 377.348C655.483 380.874 654.326 383.711 652.012 385.86C649.698 387.953 646.448 389 642.26 389H621.6V347.68H640.608C644.685 347.68 647.852 348.699 650.111 350.738C652.425 352.776 653.582 355.503 653.582 358.919C653.582 362.886 652.095 365.833 649.12 367.762ZM640.277 354.126H628.625V364.952H640.277C644.464 364.952 646.558 363.106 646.558 359.415C646.558 355.889 644.464 354.126 640.277 354.126ZM628.625 382.471H641.847C643.941 382.471 645.538 381.976 646.64 380.984C647.797 379.992 648.376 378.587 648.376 376.769C648.376 375.061 647.797 373.739 646.64 372.803C645.538 371.811 643.941 371.315 641.847 371.315H628.625V382.471ZM702.91 371.646H668.284C669 375.282 670.681 378.147 673.325 380.24C675.97 382.279 679.275 383.298 683.242 383.298C688.696 383.298 692.663 381.287 695.142 377.265L701.258 380.736C697.181 386.962 691.12 390.074 683.077 390.074C676.576 390.074 671.232 388.036 667.045 383.959C662.968 379.772 660.929 374.566 660.929 368.34C660.929 362.059 662.94 356.881 666.962 352.804C670.984 348.672 676.19 346.606 682.581 346.606C688.641 346.606 693.572 348.754 697.374 353.052C701.23 357.239 703.158 362.362 703.158 368.423C703.158 369.469 703.076 370.544 702.91 371.646ZM682.581 353.382C678.78 353.382 675.584 354.456 672.995 356.605C670.46 358.754 668.89 361.674 668.284 365.365H695.886C695.28 361.564 693.765 358.616 691.341 356.522C688.917 354.429 685.997 353.382 682.581 353.382ZM734.232 346.606C740.016 346.606 744.947 348.727 749.024 352.969C753.101 357.211 755.14 362.335 755.14 368.34C755.14 374.4 753.101 379.551 749.024 383.794C745.002 387.981 740.072 390.074 734.232 390.074C727.4 390.074 722.194 387.347 718.613 381.893V405.528H711.423V347.68H718.613V354.787C722.194 349.333 727.4 346.606 734.232 346.606ZM733.323 383.133C737.455 383.133 740.925 381.728 743.735 378.918C746.545 375.998 747.95 372.472 747.95 368.34C747.95 364.153 746.545 360.654 743.735 357.845C740.925 354.98 737.455 353.547 733.323 353.547C729.135 353.547 725.637 354.98 722.827 357.845C720.018 360.654 718.613 364.153 718.613 368.34C718.613 372.472 720.018 375.998 722.827 378.918C725.637 381.728 729.135 383.133 733.323 383.133ZM813.137 382.141V347.68H820.327V389H763.719V347.68H770.908V382.141H788.428V347.68H795.618V382.141H813.137ZM871.015 371.646H836.389C837.105 375.282 838.785 378.147 841.43 380.24C844.074 382.279 847.38 383.298 851.347 383.298C856.801 383.298 860.768 381.287 863.247 377.265L869.362 380.736C865.285 386.962 859.225 390.074 851.181 390.074C844.68 390.074 839.336 388.036 835.149 383.959C831.072 379.772 829.034 374.566 829.034 368.34C829.034 362.059 831.045 356.881 835.067 352.804C839.088 348.672 844.295 346.606 850.686 346.606C856.746 346.606 861.677 348.754 865.478 353.052C869.335 357.239 871.263 362.362 871.263 368.423C871.263 369.469 871.18 370.544 871.015 371.646ZM850.686 353.382C846.884 353.382 843.689 354.456 841.099 356.605C838.565 358.754 836.995 361.674 836.389 365.365H863.991C863.385 361.564 861.87 358.616 859.445 356.522C857.021 354.429 854.101 353.382 850.686 353.382ZM908.121 364.869V347.68H915.311V389H908.121V371.728H886.717V389H879.528V347.68H886.717V364.869H908.121ZM945.675 390.074C939.45 390.074 934.271 388.008 930.139 383.876C926.007 379.689 923.941 374.51 923.941 368.34C923.941 362.17 926.007 357.018 930.139 352.886C934.271 348.699 939.45 346.606 945.675 346.606C949.752 346.606 953.416 347.597 956.666 349.581C959.917 351.509 962.341 354.126 963.939 357.432L957.906 360.902C956.859 358.699 955.234 356.936 953.03 355.613C950.881 354.291 948.43 353.63 945.675 353.63C941.543 353.63 938.072 355.035 935.262 357.845C932.508 360.71 931.13 364.208 931.13 368.34C931.13 372.417 932.508 375.888 935.262 378.753C938.072 381.562 941.543 382.967 945.675 382.967C948.43 382.967 950.909 382.334 953.113 381.067C955.316 379.744 956.997 377.981 958.154 375.778L964.269 379.331C962.451 382.637 959.889 385.254 956.584 387.182C953.278 389.11 949.642 390.074 945.675 390.074ZM966.094 347.68H1001.46V354.622H987.415V389H980.226V354.622H966.094V347.68ZM1035.28 367.762C1039.53 369.525 1041.65 372.72 1041.65 377.348C1041.65 380.874 1040.49 383.711 1038.18 385.86C1035.86 387.953 1032.61 389 1028.42 389H1007.76V347.68H1026.77C1030.85 347.68 1034.02 348.699 1036.28 350.738C1038.59 352.776 1039.75 355.503 1039.75 358.919C1039.75 362.886 1038.26 365.833 1035.28 367.762ZM1026.44 354.126H1014.79V364.952H1026.44C1030.63 364.952 1032.72 363.106 1032.72 359.415C1032.72 355.889 1030.63 354.126 1026.44 354.126ZM1014.79 382.471H1028.01C1030.11 382.471 1031.7 381.976 1032.8 380.984C1033.96 379.992 1034.54 378.587 1034.54 376.769C1034.54 375.061 1033.96 373.739 1032.8 372.803C1031.7 371.811 1030.11 371.315 1028.01 371.315H1014.79V382.471ZM1064.73 380.075L1076.63 347.68H1084.32L1067.46 391.562C1065.7 396.245 1063.22 399.798 1060.02 402.222C1056.83 404.702 1053.19 405.803 1049.12 405.528V398.834C1054.13 399.22 1057.85 396.465 1060.27 390.57L1060.93 389.083L1043 347.68H1050.6L1064.73 380.075ZM1128.38 371.646H1093.75C1094.47 375.282 1096.15 378.147 1098.79 380.24C1101.44 382.279 1104.74 383.298 1108.71 383.298C1114.16 383.298 1118.13 381.287 1120.61 377.265L1126.72 380.736C1122.65 386.962 1116.59 390.074 1108.54 390.074C1102.04 390.074 1096.7 388.036 1092.51 383.959C1088.43 379.772 1086.4 374.566 1086.4 368.34C1086.4 362.059 1088.41 356.881 1092.43 352.804C1096.45 348.672 1101.66 346.606 1108.05 346.606C1114.11 346.606 1119.04 348.754 1122.84 353.052C1126.7 357.239 1128.63 362.362 1128.63 368.423C1128.63 369.469 1128.54 370.544 1128.38 371.646ZM1108.05 353.382C1104.25 353.382 1101.05 354.456 1098.46 356.605C1095.93 358.754 1094.36 361.674 1093.75 365.365H1121.35C1120.75 361.564 1119.23 358.616 1116.81 356.522C1114.38 354.429 1111.46 353.382 1108.05 353.382ZM1170.52 347.68H1178.21V389H1171.19V359.002L1158.05 380.158H1157.14L1144 359.002V389H1136.89V347.68H1144.58L1157.55 368.588L1170.52 347.68ZM1209.85 347.68H1245.63V389H1238.44V354.539H1217.04V389H1209.85V347.68ZM1279.38 346.606C1285.17 346.606 1290.1 348.727 1294.17 352.969C1298.25 357.211 1300.29 362.335 1300.29 368.34C1300.29 374.4 1298.25 379.551 1294.17 383.794C1290.15 387.981 1285.22 390.074 1279.38 390.074C1272.55 390.074 1267.34 387.347 1263.76 381.893V405.528H1256.57V347.68H1263.76V354.787C1267.34 349.333 1272.55 346.606 1279.38 346.606ZM1278.47 383.133C1282.6 383.133 1286.08 381.728 1288.88 378.918C1291.69 375.998 1293.1 372.472 1293.1 368.34C1293.1 364.153 1291.69 360.654 1288.88 357.845C1286.08 354.98 1282.6 353.547 1278.47 353.547C1274.29 353.547 1270.79 354.98 1267.98 357.845C1265.17 360.654 1263.76 364.153 1263.76 368.34C1263.76 372.472 1265.17 375.998 1267.98 378.918C1270.79 381.728 1274.29 383.133 1278.47 383.133ZM1343.74 383.794C1339.56 387.981 1334.4 390.074 1328.29 390.074C1322.17 390.074 1317.02 387.981 1312.83 383.794C1308.65 379.607 1306.55 374.455 1306.55 368.34C1306.55 362.225 1308.65 357.073 1312.83 352.886C1317.02 348.699 1322.17 346.606 1328.29 346.606C1334.4 346.606 1339.56 348.699 1343.74 352.886C1347.98 357.129 1350.11 362.28 1350.11 368.34C1350.11 374.4 1347.98 379.551 1343.74 383.794ZM1328.29 383.05C1332.42 383.05 1335.89 381.645 1338.7 378.835C1341.51 376.026 1342.92 372.527 1342.92 368.34C1342.92 364.153 1341.51 360.654 1338.7 357.845C1335.89 355.035 1332.42 353.63 1328.29 353.63C1324.21 353.63 1320.77 355.035 1317.96 357.845C1315.15 360.654 1313.74 364.153 1313.74 368.34C1313.74 372.527 1315.15 376.026 1317.96 378.835C1320.77 381.645 1324.21 383.05 1328.29 383.05ZM1393.29 347.68V382.141H1400.07V400.074H1392.96V389H1358.58V347.68H1365.77V382.141H1386.1V347.68H1393.29ZM1445.78 371.646H1411.16C1411.87 375.282 1413.55 378.147 1416.2 380.24C1418.84 382.279 1422.15 383.298 1426.11 383.298C1431.57 383.298 1435.54 381.287 1438.01 377.265L1444.13 380.736C1440.05 386.962 1433.99 390.074 1425.95 390.074C1419.45 390.074 1414.1 388.036 1409.92 383.959C1405.84 379.772 1403.8 374.566 1403.8 368.34C1403.8 362.059 1405.81 356.881 1409.83 352.804C1413.86 348.672 1419.06 346.606 1425.45 346.606C1431.51 346.606 1436.44 348.754 1440.25 353.052C1444.1 357.239 1446.03 362.362 1446.03 368.423C1446.03 369.469 1445.95 370.544 1445.78 371.646ZM1425.45 353.382C1421.65 353.382 1418.46 354.456 1415.87 356.605C1413.33 358.754 1411.76 361.674 1411.16 365.365H1438.76C1438.15 361.564 1436.64 358.616 1434.21 356.522C1431.79 354.429 1428.87 353.382 1425.45 353.382ZM1473.63 390.074C1467.41 390.074 1462.23 388.008 1458.1 383.876C1453.97 379.689 1451.9 374.51 1451.9 368.34C1451.9 362.17 1453.97 357.018 1458.1 352.886C1462.23 348.699 1467.41 346.606 1473.63 346.606C1477.71 346.606 1481.38 347.597 1484.63 349.581C1487.88 351.509 1490.3 354.126 1491.9 357.432L1485.87 360.902C1484.82 358.699 1483.19 356.936 1480.99 355.613C1478.84 354.291 1476.39 353.63 1473.63 353.63C1469.5 353.63 1466.03 355.035 1463.22 357.845C1460.47 360.71 1459.09 364.208 1459.09 368.34C1459.09 372.417 1460.47 375.888 1463.22 378.753C1466.03 381.562 1469.5 382.967 1473.63 382.967C1476.39 382.967 1478.87 382.334 1481.07 381.067C1483.28 379.744 1484.96 377.981 1486.11 375.778L1492.23 379.331C1490.41 382.637 1487.85 385.254 1484.54 387.182C1481.24 389.11 1477.6 390.074 1473.63 390.074ZM1518.18 390.074C1511.96 390.074 1506.78 388.008 1502.65 383.876C1498.51 379.689 1496.45 374.51 1496.45 368.34C1496.45 362.17 1498.51 357.018 1502.65 352.886C1506.78 348.699 1511.96 346.606 1518.18 346.606C1522.26 346.606 1525.92 347.597 1529.17 349.581C1532.42 351.509 1534.85 354.126 1536.45 357.432L1530.41 360.902C1529.37 358.699 1527.74 356.936 1525.54 355.613C1523.39 354.291 1520.94 353.63 1518.18 353.63C1514.05 353.63 1510.58 355.035 1507.77 357.845C1505.02 360.71 1503.64 364.208 1503.64 368.34C1503.64 372.417 1505.02 375.888 1507.77 378.753C1510.58 381.562 1514.05 382.967 1518.18 382.967C1520.94 382.967 1523.42 382.334 1525.62 381.067C1527.82 379.744 1529.5 377.981 1530.66 375.778L1536.78 379.331C1534.96 382.637 1532.4 385.254 1529.09 387.182C1525.79 389.11 1522.15 390.074 1518.18 390.074ZM519.667 454.787V447.68H526.857V489H519.667V481.893C516.141 487.347 510.935 490.074 504.048 490.074C498.208 490.074 493.277 487.981 489.256 483.794C485.179 479.551 483.14 474.4 483.14 468.34C483.14 462.335 485.179 457.211 489.256 452.969C493.333 448.727 498.263 446.606 504.048 446.606C510.935 446.606 516.141 449.333 519.667 454.787ZM504.957 483.133C509.144 483.133 512.643 481.728 515.453 478.918C518.262 475.998 519.667 472.472 519.667 468.34C519.667 464.153 518.262 460.654 515.453 457.845C512.643 454.98 509.144 453.547 504.957 453.547C500.825 453.547 497.354 454.98 494.545 457.845C491.735 460.654 490.33 464.153 490.33 468.34C490.33 472.472 491.735 475.998 494.545 478.918C497.354 481.728 500.825 483.133 504.957 483.133ZM554.691 480.075L566.591 447.68H574.277L557.418 491.562C555.655 496.245 553.176 499.798 549.981 502.222C546.785 504.702 543.149 505.803 539.072 505.528V498.834C544.086 499.22 547.804 496.465 550.229 490.57L550.89 489.083L532.957 447.68H540.56L554.691 480.075ZM575.895 447.68H611.265V454.622H597.216V489H590.026V454.622H575.895V447.68ZM655.618 471.646H620.992C621.708 475.282 623.389 478.147 626.033 480.24C628.678 482.279 631.983 483.298 635.95 483.298C641.404 483.298 645.371 481.287 647.85 477.265L653.966 480.736C649.889 486.962 643.828 490.074 635.785 490.074C629.284 490.074 623.94 488.036 619.753 483.959C615.676 479.772 613.637 474.566 613.637 468.34C613.637 462.059 615.648 456.881 619.67 452.804C623.692 448.672 628.898 446.606 635.289 446.606C641.349 446.606 646.28 448.754 650.082 453.052C653.938 457.239 655.866 462.362 655.866 468.423C655.866 469.469 655.784 470.544 655.618 471.646ZM635.289 453.382C631.488 453.382 628.292 454.456 625.703 456.605C623.168 458.754 621.598 461.674 620.992 465.365H648.594C647.988 461.564 646.473 458.616 644.049 456.522C641.625 454.429 638.705 453.382 635.289 453.382ZM692.724 464.869V447.68H699.914V489H692.724V471.728H671.321V489H664.131V447.68H671.321V464.869H692.724ZM706.23 447.68H741.6V454.622H727.551V489H720.362V454.622H706.23V447.68ZM755.008 476.687L777.899 447.68H783.684V489H776.577V459.993L753.686 489H747.901V447.68H755.008V476.687ZM820.66 489.826V505.528H813.552V489.826C807.107 489.11 801.955 486.769 798.099 482.802C794.242 478.89 792.314 474.07 792.314 468.34C792.314 462.61 794.242 457.79 798.099 453.878C801.955 449.911 807.107 447.57 813.552 446.854V431.152H820.66V446.854C827.105 447.57 832.257 449.911 836.113 453.878C839.97 457.79 841.898 462.61 841.898 468.34C841.898 474.07 839.97 478.89 836.113 482.802C832.257 486.769 827.105 489.11 820.66 489.826ZM799.421 468.34C799.421 472.197 800.661 475.447 803.14 478.092C805.674 480.681 809.145 482.279 813.552 482.885V453.795C809.2 454.346 805.757 455.944 803.222 458.588C800.688 461.178 799.421 464.428 799.421 468.34ZM820.66 453.795V482.885C825.012 482.279 828.428 480.681 830.907 478.092C833.441 475.447 834.708 472.197 834.708 468.34C834.708 464.483 833.441 461.261 830.907 458.671C828.428 456.027 825.012 454.401 820.66 453.795ZM857.501 476.687L880.392 447.68H886.177V489H879.07V459.993L856.179 489H850.394V447.68H857.501V476.687ZM911.666 467.679L932.078 489H923.152L904.311 469.414V489H897.121V447.68H904.311V465.943L922.161 447.68H931.416L911.666 467.679ZM969.184 454.787V447.68H976.373V489H969.184V481.893C965.658 487.347 960.451 490.074 953.565 490.074C947.725 490.074 942.794 487.981 938.772 483.794C934.695 479.551 932.657 474.4 932.657 468.34C932.657 462.335 934.695 457.211 938.772 452.969C942.849 448.727 947.78 446.606 953.565 446.606C960.451 446.606 965.658 449.333 969.184 454.787ZM954.474 483.133C958.661 483.133 962.159 481.728 964.969 478.918C967.779 475.998 969.184 472.472 969.184 468.34C969.184 464.153 967.779 460.654 964.969 457.845C962.159 454.98 958.661 453.547 954.474 453.547C950.342 453.547 946.871 454.98 944.061 457.845C941.251 460.654 939.846 464.153 939.846 468.34C939.846 472.472 941.251 475.998 944.061 478.918C946.871 481.728 950.342 483.133 954.474 483.133ZM1021.98 447.68V482.141H1028.75V500.074H1021.64V489H987.266V447.68H994.456V482.141H1014.79V447.68H1021.98ZM1043.52 476.687L1066.41 447.68H1072.2V489H1065.09V459.993L1042.2 489H1036.41V447.68H1043.52V476.687ZM1090.25 476.687L1113.14 447.68H1118.92V489H1111.82V459.993L1088.93 489H1083.14V447.68H1090.25V476.687Z" fill="#002759"/>
<path d="M-31.0162 1089.91C-35.886 1085.04 -35.886 1076.93 -31.0162 1072.06L73.5234 967.551L90.7302 950.349L195.27 845.841L226.761 814.359C231.631 809.49 239.748 809.49 244.618 814.359C249.487 819.227 249.487 827.341 244.618 832.21L122.547 954.244L108.262 968.524L-13.8094 1090.56C-18.3546 1094.78 -26.1463 1094.78 -31.0162 1089.91Z" fill="#FF1F7D"/>
<path d="M262.008 795.988C257.111 791.272 257.111 783.414 262.008 778.699L266.904 773.984C271.801 769.268 279.961 769.268 284.858 773.984C289.754 778.699 289.754 786.557 284.858 791.272L279.961 795.988C275.065 800.703 266.904 800.703 262.008 795.988Z" fill="#FF1F7D"/>
<path d="M64.9664 836.083C69.8299 840.953 77.9358 840.953 82.7993 836.083L151.861 766.599C156.725 761.729 164.831 761.729 169.694 766.599C174.558 771.47 174.558 779.587 169.694 784.457L-167.834 1122.46C-172.698 1127.33 -180.803 1127.33 -185.667 1122.46C-190.53 1117.59 -190.53 1109.47 -185.667 1104.6L-127.305 1046.16C-122.441 1041.29 -122.441 1033.17 -127.305 1028.3C-132.168 1023.43 -140.274 1023.43 -145.138 1028.3L-267.05 1150.38C-271.913 1155.25 -280.019 1155.25 -284.883 1150.38C-289.746 1145.51 -289.746 1137.4 -284.883 1132.53L151.537 695.817C156.401 690.946 164.506 690.946 169.37 695.817C174.233 700.687 174.233 708.804 169.37 713.675L64.9664 818.225C60.1029 823.096 60.1029 831.213 64.9664 836.083Z" fill="#FF1F7D"/>
<path d="M1731.27 -112.08C1735.62 -107.725 1742.87 -107.725 1747.22 -112.08L1808.97 -174.211C1813.32 -178.566 1820.57 -178.566 1824.92 -174.211C1829.27 -169.856 1829.27 -162.598 1824.92 -158.243L1523.11 143.995C1518.76 148.35 1511.51 148.35 1507.16 143.995C1502.81 139.64 1502.81 132.381 1507.16 128.026L1559.35 75.7661C1563.7 71.4111 1563.7 64.1528 1559.35 59.7977C1555 55.4427 1547.75 55.4427 1543.4 59.7977L1434.39 168.963C1430.04 173.318 1422.79 173.318 1418.44 168.963C1414.09 164.608 1414.09 157.35 1418.44 152.995L1808.68 -237.504C1813.03 -241.859 1820.28 -241.859 1824.63 -237.504C1828.98 -233.149 1828.98 -225.891 1824.63 -221.536L1731.27 -128.048C1726.92 -123.693 1726.92 -116.435 1731.27 -112.08Z" fill="#FF1F7D"/>
<path d="M75.4896 182.397H71.7634V195.215H68.5089V182.397H65.9619V180.889L68.4618 179.9V178.91C68.4618 177.12 68.8863 175.753 69.7353 174.905C70.5843 174.057 71.8578 173.585 73.603 173.585C74.735 173.585 75.867 173.774 76.9518 174.151L76.1028 176.601C75.301 176.366 74.5463 176.224 73.7916 176.224C73.037 176.224 72.5181 176.46 72.1879 176.931C71.8578 177.402 71.6691 178.062 71.6691 179.004V179.994H75.3953V182.397H75.4896ZM90.6302 195.215L88.6492 188.099C88.4134 187.345 87.9889 185.602 87.3285 182.821H87.187C86.6682 185.319 86.2437 187.062 85.9135 188.099L83.8853 195.215H80.3007L76.0085 179.947H79.3102L81.244 187.486C81.6685 189.324 81.9987 190.926 82.1873 192.246H82.2817C82.376 191.586 82.5175 190.785 82.7062 189.937C82.8948 189.089 83.0363 188.429 83.1778 188.005L85.489 179.947H89.0737L91.3377 188.005C91.4792 188.476 91.6679 189.136 91.8566 190.078C92.0452 191.021 92.1867 191.727 92.2339 192.246H92.3754C92.5169 191.115 92.8471 189.513 93.3659 187.486L95.3469 179.947H98.6014L94.2621 195.215H90.6302ZM106.337 195.497C104.45 195.497 102.941 194.79 101.856 193.424C100.771 192.057 100.252 190.125 100.252 187.628C100.252 185.13 100.771 183.198 101.856 181.785C102.941 180.371 104.45 179.711 106.337 179.711C108.365 179.711 109.874 180.465 110.912 181.926H111.101C110.959 180.842 110.865 179.947 110.865 179.334V173.774H114.119V195.262H111.572L111.006 193.283H110.865C109.874 194.743 108.365 195.497 106.337 195.497ZM107.233 192.858C108.554 192.858 109.544 192.481 110.157 191.727C110.77 190.974 111.101 189.748 111.101 188.099V187.628C111.101 185.696 110.77 184.329 110.157 183.528C109.544 182.727 108.554 182.303 107.233 182.303C106.101 182.303 105.205 182.774 104.592 183.67C103.978 184.612 103.648 185.931 103.648 187.628C103.648 189.324 103.931 190.597 104.544 191.492C105.11 192.434 106.007 192.858 107.233 192.858ZM128.411 195.215L127.751 193.094H127.656C126.902 194.036 126.194 194.649 125.439 194.979C124.685 195.309 123.741 195.497 122.562 195.497C121.053 195.497 119.874 195.073 119.025 194.272C118.176 193.471 117.751 192.293 117.751 190.832C117.751 189.277 118.317 188.052 119.496 187.251C120.676 186.45 122.468 186.026 124.826 185.931L127.468 185.837V185.036C127.468 184.047 127.232 183.34 126.76 182.869C126.288 182.397 125.581 182.162 124.638 182.162C123.836 182.162 123.081 182.256 122.374 182.492C121.666 182.727 120.959 183.01 120.298 183.293L119.261 180.984C120.11 180.56 121.006 180.23 121.996 179.994C122.987 179.758 123.93 179.664 124.779 179.664C126.713 179.664 128.175 180.088 129.166 180.937C130.156 181.785 130.628 183.104 130.628 184.942V195.215H128.411V195.215ZM123.553 193C124.732 193 125.675 192.67 126.383 192.01C127.09 191.351 127.468 190.408 127.468 189.23V187.911L125.487 188.005C123.977 188.052 122.845 188.335 122.138 188.759C121.43 189.23 121.1 189.89 121.1 190.832C121.1 191.492 121.289 192.057 121.713 192.434C122.138 192.811 122.751 193 123.553 193ZM132.939 179.947H136.476L139.589 188.617C140.061 189.843 140.391 191.021 140.533 192.104H140.627C140.721 191.586 140.863 190.974 141.099 190.267C141.335 189.56 142.467 186.12 144.589 179.994H148.08L141.57 197.241C140.391 200.398 138.41 202 135.627 202C134.92 202 134.212 201.906 133.505 201.765V199.22C133.977 199.314 134.543 199.408 135.156 199.408C136.712 199.408 137.844 198.513 138.457 196.675L139.023 195.262L132.939 179.947ZM160.673 190.879C160.673 192.387 160.107 193.518 159.022 194.319C157.937 195.12 156.381 195.497 154.353 195.497C152.325 195.497 150.674 195.167 149.447 194.555V191.775C151.24 192.623 152.938 193 154.447 193C156.428 193 157.466 192.387 157.466 191.209C157.466 190.832 157.371 190.502 157.136 190.22C156.9 189.984 156.57 189.701 156.051 189.418C155.532 189.136 154.824 188.806 153.928 188.476C152.183 187.816 150.957 187.11 150.344 186.45C149.73 185.79 149.4 184.895 149.4 183.811C149.4 182.492 149.919 181.502 151.004 180.748C152.042 180.041 153.504 179.664 155.296 179.664C157.088 179.664 158.786 180.041 160.39 180.748L159.352 183.198C157.702 182.539 156.334 182.162 155.202 182.162C153.504 182.162 152.655 182.633 152.655 183.622C152.655 184.094 152.891 184.518 153.315 184.848C153.74 185.178 154.73 185.649 156.239 186.214C157.513 186.685 158.409 187.157 158.975 187.534C159.541 187.958 159.966 188.429 160.249 188.947C160.532 189.466 160.673 190.125 160.673 190.879Z" fill="white"/>
<path d="M68.933 170.899C67.9425 170.899 66.9992 170.805 66.103 170.617V166.376C66.386 166.423 66.7162 166.47 67.0464 166.564C67.3765 166.611 67.7539 166.658 68.1312 166.658C69.0274 166.658 69.6877 166.376 70.065 165.857C70.4424 165.292 70.6311 164.396 70.6311 163.077V144.417H76.1024V162.606C76.1024 165.339 75.4892 167.412 74.3101 168.826C73.0837 170.192 71.2914 170.899 68.933 170.899ZM89.8751 164.585L88.8375 162.512H88.7431C88.0356 163.407 87.281 164.019 86.5263 164.349C85.7716 164.679 84.7811 164.868 83.602 164.868C82.1398 164.868 80.9606 164.444 80.1116 163.548C79.2626 162.653 78.8381 161.428 78.8381 159.826C78.8381 158.176 79.4041 156.904 80.5833 156.103C81.7624 155.302 83.4133 154.831 85.6301 154.736L88.2243 154.642V154.407C88.2243 153.134 87.6111 152.475 86.3376 152.475C85.2056 152.475 83.7435 152.851 81.9983 153.653L80.4418 150.071C82.2813 149.129 84.5925 148.658 87.3281 148.658C89.3563 148.658 90.9128 149.176 91.9977 150.166C93.0825 151.155 93.6485 152.569 93.6485 154.312V164.585H89.8751ZM85.866 161.051C86.5263 161.051 87.0923 160.862 87.564 160.438C88.0356 160.014 88.2715 159.496 88.2715 158.836V157.611L87.0451 157.658C85.2528 157.705 84.3566 158.365 84.3566 159.637C84.3566 160.58 84.8755 161.051 85.866 161.051ZM100.959 164.585L94.9692 148.94H100.629L103.271 158.176C103.271 158.223 103.318 158.318 103.318 158.412C103.318 158.506 103.365 158.648 103.412 158.789C103.459 158.93 103.459 159.119 103.506 159.26C103.506 159.449 103.554 159.59 103.554 159.731H103.648C103.648 159.26 103.742 158.742 103.884 158.176L106.667 148.893H112.279L106.289 164.538H100.959V164.585ZM123.882 164.585L122.845 162.512H122.75C122.043 163.407 121.288 164.019 120.534 164.349C119.779 164.679 118.788 164.868 117.609 164.868C116.147 164.868 114.968 164.444 114.119 163.548C113.27 162.653 112.845 161.428 112.845 159.826C112.845 158.176 113.411 156.904 114.591 156.103C115.77 155.302 117.421 154.831 119.637 154.736L122.232 154.642V154.407C122.232 153.134 121.618 152.475 120.345 152.475C119.213 152.475 117.751 152.851 116.006 153.653L114.449 150.071C116.289 149.129 118.6 148.658 121.335 148.658C123.364 148.658 124.92 149.176 126.005 150.166C127.09 151.155 127.656 152.569 127.656 154.312V164.585H123.882ZM119.873 161.051C120.534 161.051 121.1 160.862 121.571 160.438C122.043 160.014 122.279 159.496 122.279 158.836V157.611L121.052 157.658C119.26 157.705 118.364 158.365 118.364 159.637C118.317 160.58 118.836 161.051 119.873 161.051ZM144.353 158.459C144.353 159.731 144.023 160.815 143.41 161.805C142.796 162.794 141.853 163.548 140.674 164.067C139.495 164.585 138.08 164.868 136.476 164.868C135.108 164.868 134.023 164.773 133.08 164.585C132.184 164.396 131.241 164.067 130.25 163.595V158.742C131.288 159.26 132.373 159.684 133.505 160.014C134.637 160.297 135.674 160.485 136.618 160.485C137.419 160.485 138.033 160.344 138.41 160.061C138.787 159.778 138.976 159.401 138.976 158.977C138.976 158.695 138.882 158.459 138.74 158.271C138.599 158.082 138.363 157.846 137.985 157.658C137.655 157.469 136.759 156.998 135.297 156.339C133.976 155.726 132.986 155.16 132.325 154.595C131.665 154.03 131.193 153.37 130.863 152.663C130.533 151.956 130.392 151.061 130.392 150.071C130.392 148.234 131.052 146.773 132.42 145.736C133.788 144.699 135.627 144.181 137.985 144.181C140.061 144.181 142.23 144.652 144.4 145.642L142.749 149.836C140.863 148.987 139.212 148.516 137.844 148.516C137.136 148.516 136.618 148.658 136.287 148.893C135.957 149.129 135.816 149.459 135.816 149.836C135.816 150.213 136.004 150.59 136.429 150.919C136.853 151.249 137.938 151.815 139.778 152.616C141.523 153.417 142.749 154.218 143.41 155.113C144.023 155.962 144.353 157.092 144.353 158.459ZM153.786 164.868C151.239 164.868 149.305 164.161 147.985 162.794C146.664 161.428 146.004 159.449 146.004 156.857C146.004 154.265 146.711 152.239 148.126 150.825C149.541 149.412 151.569 148.705 154.211 148.705C156.003 148.705 157.748 149.082 159.352 149.883L157.748 153.888C157.088 153.605 156.475 153.37 155.956 153.181C155.39 152.993 154.824 152.946 154.211 152.946C153.315 152.946 152.654 153.276 152.183 153.982C151.711 154.642 151.475 155.632 151.475 156.857C151.475 159.354 152.418 160.627 154.258 160.627C155.862 160.627 157.371 160.155 158.833 159.26V163.548C157.418 164.396 155.767 164.868 153.786 164.868ZM170.908 148.658C171.38 148.658 171.804 148.705 172.229 148.752L172.512 148.799L172.04 153.888C171.615 153.794 171.002 153.7 170.2 153.7C169.021 153.7 168.172 153.982 167.653 154.501C167.135 155.019 166.852 155.82 166.852 156.81V164.491H161.427V148.846H165.437L166.286 151.344H166.569C167.04 150.495 167.653 149.836 168.455 149.317C169.257 148.893 170.106 148.658 170.908 148.658ZM179.681 164.585H174.257V148.94H179.681V164.585ZM174.162 145.029C174.162 144.228 174.398 143.616 174.823 143.239C175.294 142.862 176.002 142.626 176.992 142.626C177.983 142.626 178.738 142.814 179.209 143.239C179.681 143.663 179.917 144.228 179.917 145.029C179.917 146.631 178.973 147.385 177.04 147.385C175.106 147.432 174.162 146.631 174.162 145.029ZM192.416 164.868C191.614 164.868 190.907 164.726 190.294 164.491C189.68 164.208 189.067 163.737 188.407 163.077H188.171C188.36 164.161 188.407 164.868 188.407 165.103V171.371H182.983V148.94H187.369L188.124 150.919H188.36C189.35 149.412 190.765 148.658 192.51 148.658C194.256 148.658 195.623 149.364 196.567 150.825C197.557 152.239 198.029 154.218 198.029 156.716C198.029 159.26 197.51 161.239 196.472 162.653C195.435 164.067 194.161 164.868 192.416 164.868ZM190.577 152.899C189.775 152.899 189.209 153.181 188.926 153.747C188.596 154.312 188.454 155.16 188.407 156.244V156.668C188.407 158.035 188.596 158.977 188.926 159.59C189.303 160.203 189.869 160.485 190.624 160.485C191.331 160.485 191.803 160.203 192.133 159.59C192.463 158.977 192.605 158.035 192.605 156.621C192.605 155.255 192.463 154.312 192.133 153.747C191.85 153.181 191.331 152.899 190.577 152.899ZM208.406 160.58C209.113 160.58 210.009 160.391 211 160.061V163.972C210.292 164.302 209.585 164.491 208.924 164.632C208.264 164.773 207.509 164.821 206.613 164.821C204.821 164.821 203.5 164.396 202.698 163.501C201.897 162.606 201.519 161.239 201.519 159.401V152.946H199.633V150.731L202.038 149.035L203.453 145.736H206.991V148.893H210.811V152.946H206.991V159.072C206.943 160.061 207.415 160.58 208.406 160.58Z" fill="white"/>
<path d="M174.257 90.3677L148.881 115.767L131.099 98.0015L113.317 115.767L86.668 89.0954L73.3198 102.431L62.5185 91.64L87.8943 66.2411L85.3945 63.7437L57.4717 91.64L70.8199 104.928L58.7452 116.992L61.245 119.536L73.3198 107.473L85.3945 119.536L87.8943 116.992L75.8196 104.928L86.668 94.1375L113.317 120.761L131.099 102.996L148.881 120.761L176.757 92.8652L174.257 90.3677Z" fill="white"/>
<path d="M89.498 64.8745C89.498 66.4766 88.2245 67.7489 86.6208 67.7489C85.0172 67.7489 83.7437 66.4766 83.7437 64.8745C83.7437 63.2723 85.0172 62 86.6208 62C88.2245 62 89.498 63.2723 89.498 64.8745Z" fill="white"/>
<path d="M62.7544 91.5456C62.7544 93.1478 61.4809 94.4201 59.8772 94.4201C58.2735 94.4201 57 93.1006 57 91.5456C57 89.9434 58.2735 88.6711 59.8772 88.6711C61.4809 88.624 62.7544 89.9434 62.7544 91.5456Z" fill="white"/>
<path d="M89.6396 91.5927C89.6396 93.1949 88.3661 94.4672 86.7624 94.4672C85.1588 94.4672 83.8853 93.1949 83.8853 91.5927C83.8853 89.9906 85.1588 88.7183 86.7624 88.7183C88.3661 88.7183 89.6396 89.9906 89.6396 91.5927Z" fill="white"/>
<path d="M178.219 91.5456C178.219 93.1478 176.945 94.4201 175.342 94.4201C173.738 94.4201 172.464 93.1478 172.464 91.5456C172.464 89.9434 173.738 88.6711 175.342 88.6711C176.898 88.624 178.219 89.9434 178.219 91.5456Z" fill="white"/>
<path d="M62.7544 118.169C62.7544 119.772 61.4809 121.044 59.8772 121.044C58.2735 121.044 57 119.772 57 118.169C57 116.567 58.2735 115.295 59.8772 115.295C61.4809 115.295 62.7544 116.567 62.7544 118.169Z" fill="white"/>
<path d="M116.053 118.453C116.053 120.055 114.78 121.327 113.176 121.327C111.572 121.327 110.299 120.055 110.299 118.453C110.299 116.85 111.572 115.578 113.176 115.578C114.78 115.578 116.053 116.85 116.053 118.453Z" fill="white"/>
<path d="M133.977 100.546C133.977 102.148 132.703 103.42 131.099 103.42C129.496 103.42 128.222 102.148 128.222 100.546C128.222 98.9437 129.496 97.6714 131.099 97.6714C132.703 97.6714 133.977 98.9437 133.977 100.546Z" fill="white"/>
<path d="M151.428 118.453C151.428 120.055 150.155 121.327 148.551 121.327C146.947 121.327 145.674 120.055 145.674 118.453C145.674 116.85 146.947 115.578 148.551 115.578C150.155 115.578 151.428 116.85 151.428 118.453Z" fill="white"/>
<path d="M89.1679 118.453C89.1679 120.055 87.8944 121.327 86.2908 121.327C84.6871 121.327 83.4136 120.055 83.4136 118.453C83.4136 116.85 84.6871 115.578 86.2908 115.578C87.8944 115.578 89.1679 116.85 89.1679 118.453Z" fill="white"/>
</g>
<defs>
<clipPath id="clip0_2349_17">
<rect width="1600" height="900" fill="white"/>
</clipPath>
</defs>
</svg>
